<svg width="6" height="5" viewBox="0 0 6 5" fill="none" xmlns="http://www.w3.org/2000/svg">
<path d="M5.59732 2.13099C5.40351 1.72267 5.17287 1.38967 4.9054 1.13198L4.62488 1.41249C4.85363 1.6311 5.05288 1.91707 5.22517 2.27323C4.76647 3.22262 4.11534 3.67361 3.2255 3.67361C2.9584 3.67361 2.71237 3.63248 2.48743 3.55022L2.18348 3.85417C2.4959 3.99844 2.84324 4.07057 3.2255 4.07057C4.28515 4.07057 5.07576 3.51869 5.59732 2.41492C5.61829 2.37053 5.62916 2.32205 5.62916 2.27296C5.62916 2.22386 5.61829 2.17538 5.59732 2.13099ZM5.24684 0.363203L5.01181 0.127896C5.00771 0.123795 5.00285 0.120541 4.99749 0.118322C4.99214 0.116102 4.9864 0.11496 4.9806 0.11496C4.97481 0.11496 4.96907 0.116102 4.96371 0.118322C4.95836 0.120541 4.95349 0.123795 4.9494 0.127896L4.34641 0.73061C4.01395 0.5608 3.64032 0.475895 3.2255 0.475895C2.16584 0.475895 1.37523 1.02778 0.853675 2.13154C0.832711 2.17593 0.821838 2.22441 0.821838 2.27351C0.821838 2.3226 0.832711 2.37108 0.853675 2.41547C1.06204 2.85433 1.3129 3.2061 1.60624 3.47078L1.02282 4.05403C1.01456 4.0623 1.00991 4.07351 1.00991 4.08521C1.00991 4.0969 1.01456 4.10811 1.02282 4.11638L1.25819 4.35175C1.26646 4.36001 1.27767 4.36465 1.28936 4.36465C1.30106 4.36465 1.31227 4.36001 1.32054 4.35175L5.24684 0.425614C5.25094 0.421518 5.25419 0.416653 5.25641 0.411299C5.25863 0.405944 5.25978 0.400205 5.25978 0.394409C5.25978 0.388612 5.25863 0.382873 5.25641 0.377518C5.25419 0.372164 5.25094 0.3673 5.24684 0.363203ZM1.22582 2.27323C1.68508 1.32384 2.3362 0.872853 3.2255 0.872853C3.52619 0.872853 3.7996 0.924457 4.04764 1.02938L3.66006 1.41696C3.4765 1.31902 3.26633 1.28268 3.06054 1.31328C2.85476 1.34388 2.66426 1.43982 2.51714 1.58693C2.37003 1.73404 2.2741 1.92454 2.24349 2.13033C2.21289 2.33611 2.24924 2.54629 2.34717 2.72984L1.88725 3.18976C1.6327 2.9651 1.41328 2.66071 1.22582 2.27323ZM2.58595 2.27323C2.58605 2.17601 2.60908 2.08019 2.65317 1.99354C2.69726 1.90689 2.76116 1.83187 2.83969 1.77456C2.91823 1.71725 3.00917 1.67927 3.10513 1.66372C3.2011 1.64816 3.29938 1.65546 3.392 1.68502L2.61523 2.46179C2.59576 2.40083 2.58588 2.33722 2.58595 2.27323Z" fill="black" fill-opacity="0.44"/>
<path d="M3.20347 2.89069C3.18439 2.89069 3.16559 2.88981 3.14696 2.8881L2.85574 3.17931C3.0309 3.24639 3.22173 3.2613 3.40517 3.22223C3.58862 3.18316 3.75681 3.09179 3.88944 2.95917C4.02206 2.82655 4.11343 2.65835 4.1525 2.4749C4.19156 2.29146 4.17666 2.10063 4.10958 1.92548L3.81837 2.21669C3.82008 2.23532 3.82096 2.25412 3.82096 2.2732C3.821 2.3543 3.80506 2.43462 3.77404 2.50955C3.74303 2.58449 3.69754 2.65258 3.6402 2.70993C3.58285 2.76728 3.51476 2.81276 3.43982 2.84377C3.36488 2.87479 3.28457 2.89073 3.20347 2.89069Z" fill="black" fill-opacity="0.44"/>
</svg>
