<svg width="7" height="7" viewBox="0 0 7 7" fill="none" xmlns="http://www.w3.org/2000/svg">
<g id="person_24px">
<path id="icon/social/person_24px" fill-rule="evenodd" clip-rule="evenodd" d="M3.22566 1.39038C2.69445 1.39038 2.2642 1.83547 2.2642 2.385C2.2642 2.93453 2.69445 3.37962 3.22566 3.37962C3.75687 3.37962 4.18713 2.93453 4.18713 2.385C4.18713 1.83547 3.75687 1.39038 3.22566 1.39038ZM3.70639 2.385C3.70639 2.11148 3.49006 1.88769 3.22566 1.88769C2.96126 1.88769 2.74493 2.11148 2.74493 2.385C2.74493 2.65852 2.96126 2.88231 3.22566 2.88231C3.49006 2.88231 3.70639 2.65852 3.70639 2.385ZM4.66783 4.87157C4.61976 4.69503 3.87462 4.37426 3.22563 4.37426C2.57905 4.37426 1.83872 4.69254 1.78344 4.87157H4.66783ZM1.30273 4.87157C1.30273 4.21015 2.58389 3.87695 3.22566 3.87695C3.86744 3.87695 5.14859 4.21015 5.14859 4.87157V5.36888H1.30273V4.87157Z" fill="black" fill-opacity="0.44"/>
</g>
</svg>
